# MagicaVoxel @ Ephtracy

# group
o 

# material
mtllib estructura_3.mtl
usemtl palette

# normals
vn -1 0 0
vn 1 0 0
vn 0 0 1
vn 0 0 -1
vn 0 -1 0
vn 0 1 0

# texcoords
vt 0.861328 0.5
vt 0.869141 0.5
vt 0.990234 0.5

# verts
v -12.8 0 12.8
v -12.8 0 -12.8
v -12.8 0.1 12.8
v -12.8 0.1 -12.8
v -8.5 3.7 1.9
v -8.5 3.7 -0.299999
v -8.5 3.8 1.9
v -8.5 3.8 -0.299999
v -7.8 1.3 2
v -7.8 1.3 -0.799999
v -7.8 1.5 2
v -7.8 1.5 -0.799999
v -7.7 3.7 2.3
v -7.7 3.7 1.9
v -7.7 3.8 2.3
v -7.7 3.8 1.9
v -7.5 0.1 1.9
v -7.5 0.1 -0.599999
v -7.5 1.3 1.9
v -7.5 1.3 -0.599999
v -4.2 1 1.8
v -4.2 1 -0.9
v -4.2 1.2 1.8
v -4.2 1.2 -0.9
v -3.8 0.1 1.6
v -3.8 0.1 -0.299999
v -3.8 1 1.6
v -3.8 1 -0.299999
v -3.4 3.3 2
v -3.4 3.3 -0.9
v -3.4 3.5 2
v -3.4 3.5 -0.9
v -1 2.1 2.3
v -1 2.1 -1.5
v -1 2.4 2.3
v -1 2.4 -1.5
v -0.5 0.1 1.6
v -0.5 0.1 -0.799999
v -0.5 2.1 1.6
v -0.5 2.1 -0.799999
v 4 1.4 2.3
v 4 1.4 -1.6
v 4 1.7 2.3
v 4 1.7 -1.6
v 4.2 0.1 1.7
v 4.2 0.1 -0.9
v 4.2 1.4 1.7
v 4.2 1.4 -0.9
v -6.3 3.7 2.3
v -6.3 3.7 1.9
v -6.3 3.8 2.3
v -6.3 3.8 1.9
v -5.6 0.1 1.9
v -5.6 0.1 -0.599999
v -5.6 1.3 1.9
v -5.6 1.3 -0.599999
v -5.6 3.7 1.9
v -5.6 3.7 -0.299999
v -5.6 3.8 1.9
v -5.6 3.8 -0.299999
v -5.3 1.3 2
v -5.3 1.3 -0.799999
v -5.3 1.5 2
v -5.3 1.5 -0.799999
v -2.2 3.3 2
v -2.2 3.3 -0.9
v -2.2 3.5 2
v -2.2 3.5 -0.9
v -2 0.1 1.6
v -2 0.1 -0.299999
v -2 1 1.6
v -2 1 -0.299999
v -1.7 1 1.8
v -1.7 1 -0.9
v -1.7 1.2 1.8
v -1.7 1.2 -0.9
v 2.5 0.1 1.6
v 2.5 0.1 -0.799999
v 2.5 2.1 1.6
v 2.5 2.1 -0.799999
v 3.1 2.1 2.3
v 3.1 2.1 -1.5
v 3.1 2.4 2.3
v 3.1 2.4 -1.5
v 5.7 0.1 1.7
v 5.7 0.1 -0.9
v 5.7 1.4 1.7
v 5.7 1.4 -0.9
v 6.1 1.4 2.3
v 6.1 1.4 -1.6
v 6.1 1.7 2.3
v 6.1 1.7 -1.6
v 12.8 0 12.8
v 12.8 0 -12.8
v 12.8 0.1 12.8
v 12.8 0.1 -12.8
v -12.8 0 12.8
v -12.8 0.1 12.8
v 12.8 0 12.8
v 12.8 0.1 12.8
v -7.7 3.7 2.3
v -7.7 3.8 2.3
v -6.3 3.7 2.3
v -6.3 3.8 2.3
v -1 2.1 2.3
v -1 2.4 2.3
v 3.1 2.1 2.3
v 3.1 2.4 2.3
v 4 1.4 2.3
v 4 1.7 2.3
v 6.1 1.4 2.3
v 6.1 1.7 2.3
v -7.8 1.3 2
v -7.8 1.5 2
v -5.3 1.3 2
v -5.3 1.5 2
v -3.4 3.3 2
v -3.4 3.5 2
v -2.2 3.3 2
v -2.2 3.5 2
v -8.5 3.7 1.9
v -8.5 3.8 1.9
v -7.7 3.7 1.9
v -7.7 3.8 1.9
v -7.5 0.1 1.9
v -7.5 1.3 1.9
v -6.3 3.7 1.9
v -6.3 3.8 1.9
v -5.6 0.1 1.9
v -5.6 1.3 1.9
v -5.6 3.7 1.9
v -5.6 3.8 1.9
v -4.2 1 1.8
v -4.2 1.2 1.8
v -1.7 1 1.8
v -1.7 1.2 1.8
v 4.2 0.1 1.7
v 4.2 1.4 1.7
v 5.7 0.1 1.7
v 5.7 1.4 1.7
v -3.8 0.1 1.6
v -3.8 1 1.6
v -2 0.1 1.6
v -2 1 1.6
v -0.5 0.1 1.6
v -0.5 2.1 1.6
v 2.5 0.1 1.6
v 2.5 2.1 1.6
v -8.5 3.7 -0.299999
v -8.5 3.8 -0.299999
v -5.6 3.7 -0.299999
v -5.6 3.8 -0.299999
v -3.8 0.1 -0.299999
v -3.8 1 -0.299999
v -2 0.1 -0.299999
v -2 1 -0.299999
v -7.5 0.1 -0.599999
v -7.5 1.3 -0.599999
v -5.6 0.1 -0.599999
v -5.6 1.3 -0.599999
v -7.8 1.3 -0.799999
v -7.8 1.5 -0.799999
v -5.3 1.3 -0.799999
v -5.3 1.5 -0.799999
v -0.5 0.1 -0.799999
v -0.5 2.1 -0.799999
v 2.5 0.1 -0.799999
v 2.5 2.1 -0.799999
v -4.2 1 -0.9
v -4.2 1.2 -0.9
v -3.4 3.3 -0.9
v -3.4 3.5 -0.9
v -2.2 3.3 -0.9
v -2.2 3.5 -0.9
v -1.7 1 -0.9
v -1.7 1.2 -0.9
v 4.2 0.1 -0.9
v 4.2 1.4 -0.9
v 5.7 0.1 -0.9
v 5.7 1.4 -0.9
v -1 2.1 -1.5
v -1 2.4 -1.5
v 3.1 2.1 -1.5
v 3.1 2.4 -1.5
v 4 1.4 -1.6
v 4 1.7 -1.6
v 6.1 1.4 -1.6
v 6.1 1.7 -1.6
v -12.8 0 -12.8
v -12.8 0.1 -12.8
v 12.8 0 -12.8
v 12.8 0.1 -12.8
v -12.8 0 12.8
v 12.8 0 12.8
v 4.8 0 1.7
v 5.7 0 1.7
v 4.8 0 1.3
v 4.9 0 1.3
v 4.9 0 0.8
v 5 0 0.8
v 5 0 0.3
v 5.1 0 0.3
v 5.1 0 -0.2
v 5.2 0 -0.2
v 5.2 0 -0.7
v 5.3 0 -0.7
v 5.3 0 -0.799999
v 5.7 0 -0.799999
v -12.8 0 -12.8
v 12.8 0 -12.8
v -4.2 1 1.8
v -1.7 1 1.8
v -3.8 1 1.6
v -2 1 1.6
v -3.8 1 -0.299999
v -2 1 -0.299999
v -4.2 1 -0.9
v -1.7 1 -0.9
v -7.8 1.3 2
v -5.3 1.3 2
v -7.5 1.3 1.9
v -5.6 1.3 1.9
v -7.5 1.3 -0.599999
v -5.6 1.3 -0.599999
v -7.8 1.3 -0.799999
v -5.3 1.3 -0.799999
v 4 1.4 2.3
v 6.1 1.4 2.3
v 4.2 1.4 1.7
v 5.7 1.4 1.7
v 4.2 1.4 -0.9
v 5.7 1.4 -0.9
v 4 1.4 -1.6
v 6.1 1.4 -1.6
v -1 2.1 2.3
v 3.1 2.1 2.3
v -0.5 2.1 1.6
v 2.5 2.1 1.6
v -0.5 2.1 -0.799999
v 2.5 2.1 -0.799999
v -1 2.1 -1.5
v 3.1 2.1 -1.5
v -3.4 3.3 2
v -2.2 3.3 2
v -3.4 3.3 -0.9
v -2.2 3.3 -0.9
v -7.7 3.7 2.3
v -6.3 3.7 2.3
v -8.5 3.7 1.9
v -7.7 3.7 1.9
v -6.3 3.7 1.9
v -5.6 3.7 1.9
v -8.5 3.7 -0.299999
v -5.6 3.7 -0.299999
v -12.8 0.1 12.8
v 12.8 0.1 12.8
v -7.5 0.1 1.9
v -5.6 0.1 1.9
v 4.2 0.1 1.7
v 5.7 0.1 1.7
v -3.8 0.1 1.6
v -2 0.1 1.6
v -0.5 0.1 1.6
v 2.5 0.1 1.6
v -3.8 0.1 -0.299999
v -2 0.1 -0.299999
v -7.5 0.1 -0.599999
v -5.6 0.1 -0.599999
v -0.5 0.1 -0.799999
v 2.5 0.1 -0.799999
v 4.2 0.1 -0.9
v 5.7 0.1 -0.9
v -12.8 0.1 -12.8
v 12.8 0.1 -12.8
v -4.2 1.2 1.8
v -1.7 1.2 1.8
v -4.2 1.2 -0.9
v -1.7 1.2 -0.9
v -7.8 1.5 2
v -5.3 1.5 2
v -7.8 1.5 -0.799999
v -5.3 1.5 -0.799999
v 4 1.7 2.3
v 6.1 1.7 2.3
v 4 1.7 -1.6
v 6.1 1.7 -1.6
v -1 2.4 2.3
v 3.1 2.4 2.3
v -1 2.4 -1.5
v 3.1 2.4 -1.5
v -3.4 3.5 2
v -2.2 3.5 2
v -3.4 3.5 -0.9
v -2.2 3.5 -0.9
v -7.7 3.8 2.3
v -6.3 3.8 2.3
v -8.5 3.8 1.9
v -7.7 3.8 1.9
v -6.3 3.8 1.9
v -5.6 3.8 1.9
v -8.5 3.8 -0.299999
v -5.6 3.8 -0.299999

# faces
f 3/2/1 2/2/1 1/2/1
f 4/2/1 2/2/1 3/2/1
f 7/3/1 6/3/1 5/3/1
f 8/3/1 6/3/1 7/3/1
f 11/3/1 10/3/1 9/3/1
f 12/3/1 10/3/1 11/3/1
f 15/3/1 14/3/1 13/3/1
f 16/3/1 14/3/1 15/3/1
f 19/1/1 18/1/1 17/1/1
f 20/1/1 18/1/1 19/1/1
f 23/3/1 22/3/1 21/3/1
f 24/3/1 22/3/1 23/3/1
f 27/1/1 26/1/1 25/1/1
f 28/1/1 26/1/1 27/1/1
f 31/3/1 30/3/1 29/3/1
f 32/3/1 30/3/1 31/3/1
f 35/3/1 34/3/1 33/3/1
f 36/3/1 34/3/1 35/3/1
f 39/1/1 38/1/1 37/1/1
f 40/1/1 38/1/1 39/1/1
f 43/3/1 42/3/1 41/3/1
f 44/3/1 42/3/1 43/3/1
f 47/1/1 46/1/1 45/1/1
f 48/1/1 46/1/1 47/1/1
f 49/3/2 50/3/2 51/3/2
f 51/3/2 50/3/2 52/3/2
f 53/1/2 54/1/2 55/1/2
f 55/1/2 54/1/2 56/1/2
f 57/3/2 58/3/2 59/3/2
f 59/3/2 58/3/2 60/3/2
f 61/3/2 62/3/2 63/3/2
f 63/3/2 62/3/2 64/3/2
f 65/3/2 66/3/2 67/3/2
f 67/3/2 66/3/2 68/3/2
f 69/1/2 70/1/2 71/1/2
f 71/1/2 70/1/2 72/1/2
f 73/3/2 74/3/2 75/3/2
f 75/3/2 74/3/2 76/3/2
f 77/1/2 78/1/2 79/1/2
f 79/1/2 78/1/2 80/1/2
f 81/3/2 82/3/2 83/3/2
f 83/3/2 82/3/2 84/3/2
f 85/1/2 86/1/2 87/1/2
f 87/1/2 86/1/2 88/1/2
f 89/3/2 90/3/2 91/3/2
f 91/3/2 90/3/2 92/3/2
f 93/2/2 94/2/2 95/2/2
f 95/2/2 94/2/2 96/2/2
f 99/2/3 98/2/3 97/2/3
f 100/2/3 98/2/3 99/2/3
f 103/3/3 102/3/3 101/3/3
f 104/3/3 102/3/3 103/3/3
f 107/3/3 106/3/3 105/3/3
f 108/3/3 106/3/3 107/3/3
f 111/3/3 110/3/3 109/3/3
f 112/3/3 110/3/3 111/3/3
f 115/3/3 114/3/3 113/3/3
f 116/3/3 114/3/3 115/3/3
f 119/3/3 118/3/3 117/3/3
f 120/3/3 118/3/3 119/3/3
f 123/3/3 122/3/3 121/3/3
f 124/3/3 122/3/3 123/3/3
f 129/1/3 126/1/3 125/1/3
f 130/1/3 126/1/3 129/1/3
f 131/3/3 128/3/3 127/3/3
f 132/3/3 128/3/3 131/3/3
f 135/3/3 134/3/3 133/3/3
f 136/3/3 134/3/3 135/3/3
f 139/1/3 138/1/3 137/1/3
f 140/1/3 138/1/3 139/1/3
f 143/1/3 142/1/3 141/1/3
f 144/1/3 142/1/3 143/1/3
f 147/1/3 146/1/3 145/1/3
f 148/1/3 146/1/3 147/1/3
f 149/3/4 150/3/4 151/3/4
f 151/3/4 150/3/4 152/3/4
f 153/1/4 154/1/4 155/1/4
f 155/1/4 154/1/4 156/1/4
f 157/1/4 158/1/4 159/1/4
f 159/1/4 158/1/4 160/1/4
f 161/3/4 162/3/4 163/3/4
f 163/3/4 162/3/4 164/3/4
f 165/1/4 166/1/4 167/1/4
f 167/1/4 166/1/4 168/1/4
f 171/3/4 172/3/4 173/3/4
f 173/3/4 172/3/4 174/3/4
f 169/3/4 170/3/4 175/3/4
f 175/3/4 170/3/4 176/3/4
f 177/1/4 178/1/4 179/1/4
f 179/1/4 178/1/4 180/1/4
f 181/3/4 182/3/4 183/3/4
f 183/3/4 182/3/4 184/3/4
f 185/3/4 186/3/4 187/3/4
f 187/3/4 186/3/4 188/3/4
f 189/2/4 190/2/4 191/2/4
f 191/2/4 190/2/4 192/2/4
f 195/2/5 194/2/5 193/2/5
f 196/2/5 194/2/5 195/2/5
f 197/2/5 195/2/5 193/2/5
f 197/1/5 196/1/5 195/1/5
f 198/1/5 196/1/5 197/1/5
f 199/2/5 198/2/5 197/2/5
f 199/1/5 196/1/5 198/1/5
f 200/1/5 196/1/5 199/1/5
f 201/2/5 200/2/5 199/2/5
f 201/1/5 196/1/5 200/1/5
f 202/1/5 196/1/5 201/1/5
f 203/2/5 202/2/5 201/2/5
f 203/1/5 196/1/5 202/1/5
f 204/1/5 196/1/5 203/1/5
f 205/2/5 204/2/5 203/2/5
f 205/1/5 196/1/5 204/1/5
f 206/1/5 196/1/5 205/1/5
f 207/2/5 206/2/5 205/2/5
f 207/1/5 196/1/5 206/1/5
f 208/2/5 194/2/5 196/2/5
f 208/1/5 196/1/5 207/1/5
f 209/2/5 207/2/5 205/2/5
f 209/2/5 197/2/5 193/2/5
f 209/2/5 208/2/5 207/2/5
f 209/2/5 205/2/5 203/2/5
f 209/2/5 203/2/5 201/2/5
f 209/2/5 201/2/5 199/2/5
f 209/2/5 199/2/5 197/2/5
f 210/2/5 194/2/5 208/2/5
f 210/2/5 208/2/5 209/2/5
f 213/3/5 212/3/5 211/3/5
f 214/3/5 212/3/5 213/3/5
f 215/3/5 213/3/5 211/3/5
f 216/3/5 212/3/5 214/3/5
f 217/3/5 215/3/5 211/3/5
f 217/3/5 216/3/5 215/3/5
f 218/3/5 212/3/5 216/3/5
f 218/3/5 216/3/5 217/3/5
f 221/3/5 220/3/5 219/3/5
f 222/3/5 220/3/5 221/3/5
f 223/3/5 221/3/5 219/3/5
f 224/3/5 220/3/5 222/3/5
f 225/3/5 223/3/5 219/3/5
f 225/3/5 224/3/5 223/3/5
f 226/3/5 220/3/5 224/3/5
f 226/3/5 224/3/5 225/3/5
f 229/3/5 228/3/5 227/3/5
f 230/3/5 228/3/5 229/3/5
f 231/3/5 229/3/5 227/3/5
f 232/3/5 228/3/5 230/3/5
f 233/3/5 231/3/5 227/3/5
f 233/3/5 232/3/5 231/3/5
f 234/3/5 228/3/5 232/3/5
f 234/3/5 232/3/5 233/3/5
f 237/3/5 236/3/5 235/3/5
f 238/3/5 236/3/5 237/3/5
f 239/3/5 237/3/5 235/3/5
f 240/3/5 236/3/5 238/3/5
f 241/3/5 239/3/5 235/3/5
f 241/3/5 240/3/5 239/3/5
f 242/3/5 236/3/5 240/3/5
f 242/3/5 240/3/5 241/3/5
f 245/3/5 244/3/5 243/3/5
f 246/3/5 244/3/5 245/3/5
f 250/3/5 248/3/5 247/3/5
f 251/3/5 248/3/5 250/3/5
f 253/3/5 250/3/5 249/3/5
f 253/3/5 252/3/5 251/3/5
f 253/3/5 251/3/5 250/3/5
f 254/3/5 252/3/5 253/3/5
f 255/2/6 256/2/6 257/2/6
f 257/2/6 256/2/6 258/2/6
f 258/2/6 256/2/6 259/2/6
f 259/2/6 256/2/6 260/2/6
f 258/2/6 259/2/6 261/2/6
f 261/2/6 259/2/6 262/2/6
f 262/2/6 259/2/6 263/2/6
f 263/2/6 259/2/6 264/2/6
f 258/2/6 261/2/6 265/2/6
f 262/2/6 263/2/6 266/2/6
f 255/2/6 257/2/6 267/2/6
f 265/2/6 266/2/6 268/2/6
f 258/2/6 265/2/6 268/2/6
f 266/2/6 263/2/6 269/2/6
f 267/2/6 268/2/6 269/2/6
f 268/2/6 266/2/6 269/2/6
f 264/2/6 259/2/6 270/2/6
f 270/2/6 259/2/6 271/2/6
f 269/2/6 270/2/6 271/2/6
f 260/2/6 256/2/6 272/2/6
f 255/2/6 267/2/6 273/2/6
f 271/2/6 272/2/6 273/2/6
f 269/2/6 271/2/6 273/2/6
f 267/2/6 269/2/6 273/2/6
f 272/2/6 256/2/6 274/2/6
f 273/2/6 272/2/6 274/2/6
f 275/3/6 276/3/6 277/3/6
f 277/3/6 276/3/6 278/3/6
f 279/3/6 280/3/6 281/3/6
f 281/3/6 280/3/6 282/3/6
f 283/3/6 284/3/6 285/3/6
f 285/3/6 284/3/6 286/3/6
f 287/3/6 288/3/6 289/3/6
f 289/3/6 288/3/6 290/3/6
f 291/3/6 292/3/6 293/3/6
f 293/3/6 292/3/6 294/3/6
f 295/3/6 296/3/6 298/3/6
f 298/3/6 296/3/6 299/3/6
f 297/3/6 298/3/6 301/3/6
f 299/3/6 300/3/6 301/3/6
f 298/3/6 299/3/6 301/3/6
f 301/3/6 300/3/6 302/3/6
